<svg width="105" height="111" viewBox="0 0 105 111" fill="none" xmlns="http://www.w3.org/2000/svg">
<path d="M3.00098 10C3.00098 4.47715 7.47813 0 13.001 0H73.001C78.5238 0 83.001 4.47715 83.001 10V70C83.001 75.5229 78.5238 80 73.001 80H13.001C7.47813 80 3.00098 75.5229 3.00098 70V10Z" fill="#86C232"/>
<rect x="73.6475" y="110.89" width="80" height="80" rx="10" transform="rotate(-157.013 73.6475 110.89)" fill="#61892F"/>
<path d="M40.2832 48C40.5645 48 40.7812 47.9297 40.9336 47.7891C41.0859 47.6367 41.1621 47.4551 41.1621 47.2441C41.1621 47.0449 41.0859 46.8691 40.9336 46.7168C40.7812 46.5645 40.5703 46.4883 40.3008 46.4883H36.0117V39.8262L39.2637 37.084L47.666 46.4883H44.748C44.4785 46.4883 44.2676 46.5645 44.1152 46.7168C43.9629 46.8691 43.8867 47.0449 43.8867 47.2441C43.8867 47.4551 43.9629 47.6367 44.1152 47.7891C44.2676 47.9297 44.4844 48 44.7656 48H52.1133C52.3828 48 52.5938 47.9297 52.7461 47.7891C52.8984 47.6367 52.9746 47.4551 52.9746 47.2441C52.9746 47.0449 52.8984 46.8691 52.7461 46.7168C52.6055 46.5645 52.4004 46.4883 52.1309 46.4883H49.7227L40.5645 36.1172L48.2637 28.9453H50.6895C50.959 28.9453 51.1641 28.875 51.3047 28.7344C51.457 28.582 51.5332 28.4004 51.5332 28.1895C51.5332 27.9785 51.457 27.7969 51.3047 27.6445C51.1523 27.4922 50.9414 27.416 50.6719 27.416H44.3086C44.0391 27.416 43.8223 27.4863 43.6582 27.627C43.5059 27.7676 43.4297 27.9316 43.4297 28.1191C43.4297 28.2949 43.5059 28.4473 43.6582 28.5762C43.8105 28.7051 44.0215 28.7695 44.291 28.7695H45.8555C46.0781 28.7695 46.1895 28.8047 46.1895 28.875C46.1895 28.9102 46.1484 28.9688 46.0664 29.0508L35.9414 38.1914V28.9453H39.334C39.6035 28.9453 39.8086 28.875 39.9492 28.7344C40.1016 28.582 40.1777 28.4062 40.1777 28.207C40.1777 27.9961 40.0957 27.8145 39.9316 27.6621C39.7793 27.498 39.5684 27.416 39.2988 27.416H31.4766C31.1953 27.416 30.9727 27.4922 30.8086 27.6445C30.6562 27.7969 30.5801 27.9785 30.5801 28.1895C30.5801 28.4004 30.6562 28.582 30.8086 28.7344C30.9609 28.875 31.1777 28.9453 31.459 28.9453H34.2539V46.4883H31.459C31.1895 46.4883 30.9727 46.5645 30.8086 46.7168C30.6562 46.8691 30.5801 47.0449 30.5801 47.2441C30.5801 47.4551 30.6562 47.6367 30.8086 47.7891C30.9727 47.9297 31.1953 48 31.4766 48H40.2832ZM66.7031 34.3066C66.7031 34.002 66.6387 33.7734 66.5098 33.6211C66.3809 33.457 66.2227 33.375 66.0352 33.375C65.8594 33.375 65.7012 33.4453 65.5605 33.5859C65.4316 33.7266 65.3555 33.9199 65.332 34.166L65.1035 36.5039H59.1797V28.9277H70.1133L70.3594 33.2168C70.3711 33.4277 70.4473 33.5918 70.5879 33.709C70.7402 33.8262 70.9102 33.8848 71.0977 33.8848C71.2852 33.8848 71.4492 33.8203 71.5898 33.6914C71.7305 33.5508 71.8008 33.3574 71.8008 33.1113V28.3652C71.8008 28.0723 71.707 27.8438 71.5195 27.6797C71.3438 27.5039 71.1094 27.416 70.8164 27.416H55.1543C54.8848 27.416 54.668 27.4922 54.5039 27.6445C54.3516 27.7969 54.2754 27.9785 54.2754 28.1895C54.2754 28.3887 54.3457 28.5645 54.4863 28.7168C54.6387 28.8574 54.8496 28.9277 55.1191 28.9277H57.4922V46.5059H54.5039C54.2344 46.5059 54.0176 46.582 53.8535 46.7344C53.7012 46.875 53.625 47.0449 53.625 47.2441C53.625 47.4434 53.7012 47.6191 53.8535 47.7715C54.0176 47.9238 54.2402 48 54.5215 48H65.3496C65.5957 48 65.7891 47.9297 65.9297 47.7891C66.0703 47.6367 66.1406 47.4551 66.1406 47.2441C66.1406 47.0449 66.0703 46.875 65.9297 46.7344C65.7891 46.582 65.5898 46.5059 65.332 46.5059H59.1797V37.8574H65.1035L65.332 40.459C65.3438 40.6934 65.4199 40.8809 65.5605 41.0215C65.7012 41.1504 65.8594 41.2148 66.0352 41.2148C66.2227 41.2148 66.3809 41.1387 66.5098 40.9863C66.6387 40.834 66.7031 40.6113 66.7031 40.3184V34.3066ZM47.4902 88C47.7715 88 47.9883 87.9297 48.1406 87.7891C48.293 87.6367 48.3691 87.4551 48.3691 87.2441C48.3691 87.0449 48.293 86.8691 48.1406 86.7168C47.9883 86.5645 47.7773 86.4883 47.5078 86.4883H42.4805V68.9277H47.5078C47.7773 68.9277 47.9883 68.8574 48.1406 68.7168C48.293 68.5645 48.3691 68.3887 48.3691 68.1895C48.3691 67.9785 48.2871 67.7969 48.123 67.6445C47.9707 67.4922 47.7598 67.416 47.4902 67.416H35.4492C35.168 67.416 34.9453 67.4922 34.7812 67.6445C34.6289 67.7969 34.5527 67.9785 34.5527 68.1895C34.5527 68.3887 34.6289 68.5645 34.7812 68.7168C34.9453 68.8574 35.1621 68.9277 35.4316 68.9277H40.793V86.4883H35.4316C35.1621 86.4883 34.9453 86.5645 34.7812 86.7168C34.6289 86.8691 34.5527 87.0449 34.5527 87.2441C34.5527 87.4551 34.6289 87.6367 34.7812 87.7891C34.9453 87.9297 35.168 88 35.4492 88H47.4902ZM69.2871 88C69.5684 88 69.7852 87.9297 69.9375 87.7891C70.0898 87.6367 70.166 87.4551 70.166 87.2441C70.166 87.0449 70.0898 86.8691 69.9375 86.7168C69.7852 86.5645 69.5742 86.4883 69.3047 86.4883H64.2773V68.9277H69.3047C69.5742 68.9277 69.7852 68.8574 69.9375 68.7168C70.0898 68.5645 70.166 68.3887 70.166 68.1895C70.166 67.9785 70.084 67.7969 69.9199 67.6445C69.7676 67.4922 69.5566 67.416 69.2871 67.416H57.2461C56.9648 67.416 56.7422 67.4922 56.5781 67.6445C56.4258 67.7969 56.3496 67.9785 56.3496 68.1895C56.3496 68.3887 56.4258 68.5645 56.5781 68.7168C56.7422 68.8574 56.959 68.9277 57.2285 68.9277H62.5898V86.4883H57.2285C56.959 86.4883 56.7422 86.5645 56.5781 86.7168C56.4258 86.8691 56.3496 87.0449 56.3496 87.2441C56.3496 87.4551 56.4258 87.6367 56.5781 87.7891C56.7422 87.9297 56.9648 88 57.2461 88H69.2871Z" fill="#E5E5E5"/>
</svg>
