<svg width="74" height="76" viewBox="0 0 74 76" fill="none" xmlns="http://www.w3.org/2000/svg">
<path d="M37 76C35.8496 76 34.78 75.7177 33.781 75.2291L23.5925 69.7155C22.0621 68.9478 22.829 68.6687 23.2898 68.5291C25.3551 67.9009 25.7385 67.7614 27.8845 66.6415C28.1133 66.5019 28.4227 66.5717 28.6515 66.7113L36.4652 70.9718C36.7679 71.1114 37.1547 71.1114 37.3835 70.9718L67.9488 54.8435C68.2515 54.7039 68.4063 54.4247 68.4063 54.0757V21.8889C68.4063 21.5399 68.2549 21.2607 67.9488 21.1211L37.3835 5.06577C37.0774 4.92619 36.6939 4.92619 36.4652 5.06577L5.89982 21.1211C5.59373 21.2607 5.439 21.6097 5.439 21.8889V54.0757C5.439 54.3549 5.59373 54.7039 5.89982 54.8435L14.2484 59.2435C18.7691 61.3373 21.6013 58.8946 21.6013 56.4519V24.6837C21.6013 24.265 21.9847 23.8462 22.5229 23.8462H26.4281C26.8889 23.8462 27.3464 24.1952 27.3464 24.6837V56.4487C27.3464 61.9654 24.0534 65.1759 18.3083 65.1759C16.5457 65.1759 15.1666 65.1759 11.2615 63.4311L3.219 59.2435C2.24988 58.7409 1.44059 58.0034 0.874703 57.1072C0.308818 56.211 0.00685468 55.1886 0 54.1455V21.9587C0 19.8649 1.22436 17.9107 3.219 16.8638L33.7844 0.732313C34.7794 0.251021 35.8817 0 37 0C38.1183 0 39.2206 0.251021 40.2156 0.732313L70.7844 16.8607C72.7756 17.9075 74 19.8617 74 21.9555V54.1424C74 56.2361 72.7756 58.1903 70.7844 59.2404L40.2156 75.3655C39.2007 75.7805 38.1062 75.9943 37 75.9937V76ZM46.4215 53.8664C33.0175 53.8664 30.2593 48.283 30.2593 43.534C30.2593 43.1152 30.6427 42.6964 31.1775 42.6964H35.1601C35.6209 42.6964 36.001 42.9756 36.001 43.3944C36.6165 47.0934 38.3791 48.908 46.4989 48.908C52.9335 48.908 55.6917 47.5819 55.6917 44.4413C55.6917 42.6267 54.9248 41.3006 44.8911 40.3933C36.5392 39.6224 31.3323 37.9506 31.3323 31.8755C31.3323 26.2191 36.5392 22.866 45.2745 22.866C55.0795 22.866 59.9064 25.94 60.5185 32.6432C60.5117 32.8701 60.4306 33.0895 60.2865 33.2713C60.1351 33.4109 59.9064 33.5505 59.6743 33.5505H55.6917C55.4983 33.5461 55.3116 33.4824 55.1599 33.3691C55.0082 33.2558 54.8997 33.099 54.8508 32.9224C53.9292 29.0838 51.5545 27.8244 45.2745 27.8244C38.2244 27.8244 37.3835 30.0577 37.3835 31.7327C37.3835 33.7599 38.3791 34.388 47.878 35.5047C57.2995 36.6214 61.7429 38.2266 61.7429 44.2287C61.6655 50.3768 56.1525 53.8664 46.4215 53.8664V53.8664Z" fill="#8EE4AF"/>
</svg>
