<svg width="80" height="80" viewBox="0 0 80 80" fill="none" xmlns="http://www.w3.org/2000/svg">
<g clip-path="url(#clip0_17_496)">
<path d="M55.4334 55.21C58.3834 54.9033 60.6234 52.3333 60.5234 49.25C60.4735 47.768 59.8524 46.3627 58.79 45.3283C57.7276 44.2938 56.3062 43.7103 54.8234 43.7H54.6168C51.4601 43.8 49.0168 46.4733 49.1168 49.66C49.2234 51.2033 49.8334 52.5367 50.7501 53.46C47.2868 60.35 41.9934 65.3833 34.0501 69.5967C28.6568 72.4767 23.0568 73.5033 17.4601 72.7833C12.8768 72.1667 9.31343 70.11 7.07343 66.72C3.81676 61.6867 3.51343 56.2367 6.26009 50.79C8.19343 46.8867 11.2501 44.0067 13.1834 42.57C12.6591 40.8443 12.2174 39.0945 11.8601 37.3267C-2.90324 48.12 -1.37324 62.7133 3.10009 69.6C6.46009 74.74 13.2801 77.9267 20.8168 77.9267C22.8743 77.9406 24.9256 77.6987 26.9234 77.2067C39.9568 74.64 49.8301 66.8267 55.4301 55.2133L55.4334 55.21ZM73.3501 42.4667C65.6134 33.32 54.2101 28.2833 41.1801 28.2833H39.5501C39.0859 27.3581 38.3739 26.5799 37.4934 26.0355C36.613 25.491 35.5986 25.2018 34.5634 25.2H34.3568C31.2034 25.3033 28.7568 27.9767 28.8601 31.1633C28.9601 34.2467 31.5068 36.71 34.5601 36.71H34.7668C35.842 36.6544 36.8799 36.2972 37.7618 35.6795C38.6436 35.0617 39.3338 34.2082 39.7534 33.2167H41.5868C49.3234 33.2167 56.6534 35.4767 63.2701 39.8967C68.3601 43.29 72.0268 47.7067 74.0601 53.0533C75.7934 57.3667 75.6934 61.58 73.8601 65.18C71.0068 70.6267 66.2234 73.6067 59.9101 73.6067C55.8401 73.6067 51.9701 72.3733 49.9334 71.4467C48.468 72.7539 46.9395 73.9887 45.3534 75.1467C49.7301 77.2033 54.2101 78.3333 58.4868 78.3333C68.2601 78.3333 75.4868 72.8867 78.2368 67.44C81.1868 61.48 80.9834 51.2033 73.3501 42.4667ZM21.6334 56.9567C21.7334 60.04 24.2801 62.5067 27.3334 62.5067H27.5368C30.6934 62.4067 33.1368 59.7333 33.0368 56.5467C32.9869 55.0647 32.3657 53.6594 31.3033 52.6249C30.2409 51.5905 28.8196 51.007 27.3368 50.9967H27.1301C26.888 50.9807 26.6451 51.0147 26.4168 51.0967C22.2434 44.11 20.5134 36.5067 21.1234 28.2833C21.5301 22.1167 23.5668 16.7733 27.1301 12.3533C30.0834 8.55333 35.7834 6.70333 39.6534 6.6C50.4434 6.39333 55.0234 19.96 55.3301 25.4067C56.6534 25.7133 58.8934 26.4333 60.4201 26.9467C59.1968 10.3 49.0201 1.66667 39.2434 1.66667C30.0834 1.66667 21.6334 8.34667 18.2734 18.2133C13.5901 31.3667 16.6434 44.0067 22.3468 53.9767C21.8368 54.6967 21.5301 55.8267 21.6334 56.9567Z" fill="#8EE4AF"/>
</g>
<defs>
<clipPath id="clip0_17_496">
<rect width="80" height="80" fill="white"/>
</clipPath>
</defs>
</svg>
