<svg width="76" height="76" viewBox="0 0 76 76" fill="none" xmlns="http://www.w3.org/2000/svg">
<path d="M38 0C58.9926 0 76 17.0074 76 38C76 58.9926 58.9926 76 38 76C17.0074 76 0 58.9926 0 38C0 17.0074 17.0074 0 38 0ZM30.4404 50.654C30.9985 52.7084 30.9368 54.6131 30.3668 56.3326L30.1672 56.9026C30.0936 57.0997 29.9962 57.285 29.9202 57.4608C29.463 58.3987 28.8718 59.2651 28.1651 60.0329C25.9493 62.434 22.8712 63.3484 21.546 62.5813C20.1115 61.7524 20.8264 58.3514 23.389 55.6391C26.1464 52.7321 30.1055 50.863 30.1055 50.863V50.8535L30.4404 50.654ZM61.8355 16.2664C60.116 9.51187 48.9226 7.29838 38.3325 11.058C32.0245 13.2976 25.2106 16.8126 20.2991 21.4011C14.459 26.8541 13.5328 31.6041 13.9175 33.5825C15.276 40.584 24.8639 45.1749 28.8111 48.564V48.5901C27.645 49.1577 19.1377 53.4256 17.1451 57.855C15.0052 62.5029 17.48 65.8326 19.0855 66.253C24.073 67.6376 29.2054 65.113 31.9651 61.0304C34.6251 57.038 34.3876 51.9175 33.2381 49.3929C34.808 48.9725 36.6652 48.773 39.0402 49.058C45.6974 49.8251 47.0202 54.0075 46.7352 55.7151C46.4502 57.4227 45.0751 58.4226 44.5954 58.7076C44.1275 58.9926 43.9779 59.0781 44.0254 59.2776C44.0753 59.5626 44.3104 59.5626 44.6928 59.5128C45.2129 59.4273 48.1579 58.0901 48.3051 54.8601C48.4405 50.7656 44.5431 46.2151 37.6176 46.3006C34.7605 46.3648 32.9531 46.5975 31.6801 47.1176C31.5877 46.9884 31.4745 46.8752 31.3452 46.7827C27.0679 42.1824 19.1377 38.9547 19.4702 32.8177C19.5724 30.5924 20.3751 24.7047 34.6726 17.5797C46.398 11.7277 55.7626 13.3499 57.3705 16.9124C59.698 21.9949 52.3854 31.4474 40.1779 32.8177C35.5252 33.3379 33.1004 31.5448 32.4829 30.8774C31.8155 30.1578 31.73 30.1103 31.4782 30.2599C31.1077 30.4428 31.3429 31.065 31.4782 31.4474C31.8606 32.3974 33.3331 34.0575 35.9076 34.9077C38.133 35.6274 43.6026 36.0477 50.1576 33.4851C57.5177 30.6422 63.2581 22.7121 61.598 16.055L61.8355 16.2664Z" fill="#8EE4AF"/>
</svg>
